<?xml version="1.0" encoding="utf-8"?>
<svg
	version="1.1"
	xmlns="http://www.w3.org/2000/svg"
	xmlns:xlink="http://www.w3.org/1999/xlink"
	x="0%" y="0%"
	width="100%" height="100%"
	viewBox="0 0 24.0 24.0"
	enable-background="new 0 0 24.0 24.0"
	xml:space="preserve">
	<path
		fill="#000000"
		stroke="#000303"
		fill-opacity="0.996"
		stroke-opacity="1.000"
		fill-rule="nonzero"
		stroke-width="0.047999993"
		stroke-linejoin="miter"
		stroke-linecap="square"
		d="M2.08,13.47L2.08,10.54L5.61,10.54L5.61,13.47L4.96,13.47L4.96,12.66L2.75,12.66L2.75,13.47zM2.75,11.89L4.93,11.89L4.93,11.28L2.75,11.28z"/>
	<path
		fill="#000000"
		stroke="#000303"
		fill-opacity="0.996"
		stroke-opacity="1.000"
		fill-rule="nonzero"
		stroke-width="0.047999993"
		stroke-linejoin="miter"
		stroke-linecap="square"
		d="M7.49,12.72L8.96,12.72L8.96,10.54L11.05,10.54L11.05,11.27L9.63,11.27L9.63,13.47L7.49,13.47z"/>
	<path
		fill="#000000"
		stroke="#000303"
		fill-opacity="0.996"
		stroke-opacity="1.000"
		fill-rule="nonzero"
		stroke-width="0.047999993"
		stroke-linejoin="miter"
		stroke-linecap="square"
		d="M15.73,10.54L16.86,10.54L15.27,12.00L16.86,13.47L15.73,13.47L14.71,12.51L13.72,13.47L12.61,13.47L14.17,12.00L12.61,10.54L13.72,10.54L14.71,11.50z"/>
	<path
		fill="#000000"
		stroke="#000303"
		fill-opacity="0.996"
		stroke-opacity="1.000"
		fill-rule="nonzero"
		stroke-width="0.047999993"
		stroke-linejoin="miter"
		stroke-linecap="square"
		d="M21.24,11.25L18.39,11.25L18.39,10.54L21.92,10.54L21.92,12.36L19.07,12.36L19.06,12.73L21.92,12.73L21.92,13.47L18.39,13.47L18.39,11.65L21.24,11.65z"/>
</svg>