<?xml version="1.0" encoding="utf-8"?>
<svg
	version="1.1"
	xmlns="http://www.w3.org/2000/svg"
	xmlns:xlink="http://www.w3.org/1999/xlink"
	x="0%" y="0%"
	width="100%" height="100%"
	viewBox="0 0 24.0 24.0"
	enable-background="new 0 0 24.0 24.0"
	xml:space="preserve">
	<path
		fill="#000000"
		stroke="#000000"
		fill-opacity="1.000"
		stroke-opacity="1.000"
		fill-rule="nonzero"
		stroke-width="0.033233035"
		stroke-linejoin="miter"
		stroke-linecap="square"
		d="M16.50,8.76L18.92,6.37C19.94,5.70,20.81,6.70,20.14,7.56L18.03,9.69C20.44,11.30,22.04,14.71,22.03,17.82L1.99,17.86C1.98,14.75,3.58,11.34,5.99,9.73L3.87,7.61C3.21,6.74,4.08,5.74,5.09,6.41L7.52,8.80C10.75,7.33,12.97,7.33,16.50,8.76zM7.82,12.76C7.26,12.76,6.82,13.21,6.82,13.77C6.82,14.32,7.26,14.77,7.82,14.77C8.37,14.77,8.82,14.32,8.82,13.77C8.82,13.21,8.37,12.76,7.82,12.76zM18.02,14.04Q18.12,13.77,18.02,13.49L18.62,13.08L17.95,11.89L17.26,12.22Q17.11,11.97,16.83,11.89L16.83,11.15L16.05,11.15L15.28,11.15L15.28,11.89Q15.01,11.97,14.85,12.22L14.16,11.89L13.48,13.08L14.09,13.49Q14.01,13.76,14.09,14.04L13.48,14.46L14.16,15.64L14.85,15.31Q15.01,15.55,15.28,15.64L15.28,16.38L16.05,16.38L16.83,16.38L16.83,15.64Q17.09,15.56,17.26,15.31L17.95,15.64L18.62,14.46L18.02,14.04z"/>
	<path
		fill="#000000"
		stroke="#000000"
		fill-opacity="1.000"
		stroke-opacity="1.000"
		fill-rule="nonzero"
		stroke-width="0.033233035"
		stroke-linejoin="miter"
		stroke-linecap="square"
		d="M16.07,12.82C16.61,12.82,17.05,13.26,17.05,13.80C17.05,14.34,16.61,14.78,16.07,14.78C15.52,14.78,15.08,14.34,15.08,13.80C15.08,13.26,15.52,12.82,16.07,12.82z"/>
</svg>