<?xml version="1.0" encoding="utf-8"?>
<svg
	version="1.1"
	xmlns="http://www.w3.org/2000/svg"
	xmlns:xlink="http://www.w3.org/1999/xlink"
	x="0%" y="0%"
	width="100%" height="100%"
	viewBox="0 0 24.0 24.0"
	enable-background="new 0 0 24.0 24.0"
	xml:space="preserve">
	<path
		fill="#030303"
		stroke="#000000"
		fill-opacity="1.000"
		stroke-opacity="1.000"
		fill-rule="nonzero"
		stroke-width="0.08934762"
		stroke-linejoin="miter"
		stroke-linecap="square"
		d="M5.29,3.87L18.69,3.87A3.26 3.26 0 0 1 21.95,7.13L21.95,16.91A3.26 3.26 0 0 1 18.69,20.17L5.29,20.17A3.26 3.26 0 0 1 2.02,16.91L2.02,7.13A3.26 3.26 0 0 1 5.29,3.87zM14.37,9.24C13.61,9.24,13.00,9.86,13.00,10.62C13.00,11.38,13.61,11.99,14.37,11.99C15.13,11.99,15.75,11.38,15.75,10.62C15.75,9.86,15.13,9.24,14.37,9.24zM17.12,12.06C16.36,12.06,15.74,12.68,15.74,13.44C15.74,14.20,16.36,14.82,17.12,14.82C17.87,14.82,18.49,14.20,18.49,13.44C18.49,12.68,17.87,12.06,17.12,12.06zM5.50,11.12C4.36,11.12,4.36,12.97,5.50,12.97L6.46,12.97L6.46,13.91C6.46,15.07,8.28,15.07,8.28,13.91L8.28,12.97L9.21,12.97C10.34,12.97,10.34,11.12,9.21,11.12L8.28,11.12L8.28,10.19C8.28,9.04,6.46,9.04,6.46,10.19L6.46,11.12L5.50,11.12z"/>
</svg>