<?xml version="1.0" encoding="utf-8"?>
<svg
	version="1.1"
	xmlns="http://www.w3.org/2000/svg"
	xmlns:xlink="http://www.w3.org/1999/xlink"
	x="0%" y="0%"
	width="100%" height="100%"
	viewBox="0 0 24.0 24.0"
	enable-background="new 0 0 24.0 24.0"
	xml:space="preserve">
	<path
		fill="#050505"
		stroke="#000000"
		fill-opacity="1.000"
		stroke-opacity="1.000"
		fill-rule="nonzero"
		stroke-width="0.06749437"
		stroke-linejoin="miter"
		stroke-linecap="square"
		d="M21.75,14.76C18.30,17.52,16.89,17.84,14.54,17.91C12.01,17.98,8.98,16.83,6.55,13.64C4.84,11.56,4.30,7.45,7.06,4.92C10.07,2.20,14.37,2.82,16.42,4.51C19.17,6.63,18.29,9.27,16.75,9.78C14.07,10.53,10.58,8.81,9.37,7.12C8.62,6.17,7.64,6.42,7.57,7.45C7.39,9.98,7.52,11.56,8.62,13.09C10.95,16.72,15.66,17.35,18.88,15.64C23.28,13.18,22.08,9.17,20.63,6.65C16.63,1.05,10.58,1.30,7.06,3.17C3.16,5.54,1.42,9.63,2.16,13.93C2.98,18.71,7.10,21.83,11.59,21.99C16.69,22.20,20.63,18.57,21.75,14.76z"/>
</svg>